<svg xmlns="http://www.w3.org/2000/svg" viewBox="0 0 390 844" width="390" height="844" style="background:#F8FAFC; font-family: -apple-system, BlinkMacSystemFont, 'Segoe UI', Roboto, 'Pyidaungsu', 'Myanmar3', sans-serif;">
  <defs>
    <linearGradient id="gold-grad" x1="0%" y1="0%" x2="100%" y2="100%">
      <stop offset="0%" stop-color="#F59E0B"/>
      <stop offset="100%" stop-color="#D97706"/>
    </linearGradient>
    <linearGradient id="red-grad" x1="0%" y1="0%" x2="100%" y2="100%">
      <stop offset="0%" stop-color="#EF4444"/>
      <stop offset="100%" stop-color="#DC2626"/>
    </linearGradient>
    <linearGradient id="emerald-grad" x1="0%" y1="0%" x2="100%" y2="100%">
      <stop offset="0%" stop-color="#10B981"/>
      <stop offset="100%" stop-color="#059669"/>
    </linearGradient>
    <linearGradient id="cyan-grad" x1="0%" y1="0%" x2="100%" y2="100%">
      <stop offset="0%" stop-color="#38BDF8"/>
      <stop offset="100%" stop-color="#0284C7"/>
    </linearGradient>
    <filter id="card-shadow" x="-5%" y="-5%" width="110%" height="115%">
      <feDropShadow dx="0" dy="4" stdDeviation="6" flood-color="#0F172A" flood-opacity="0.06"/>
    </filter>
  </defs>

  <!-- Device Outer Border & Dynamic Island - Light Mode -->
  <rect x="1" y="1" width="388" height="842" rx="46" fill="#FFFFFF" stroke="#E2E8F0" stroke-width="2"/>
  <rect x="130" y="12" width="130" height="28" rx="14" fill="#0F172A"/>
  <circle cx="236" cy="26" r="5" fill="#1E293B"/>

  <!-- Status Bar -->
  <text x="36" y="32" fill="#0F172A" font-size="13" font-weight="700">9:41</text>
  <text x="354" y="32" fill="#0F172A" font-size="11" font-weight="700" text-anchor="end">5G 🔋 100%</text>

  <!-- App Header -->
  <rect x="0" y="48" width="390" height="52" fill="#FFFFFF" stroke="#E2E8F0" stroke-width="1"/>
  <text x="24" y="80" fill="#D97706" font-size="18" font-weight="900" letter-spacing="0.5">LaBar</text>
  <rect x="92" y="66" width="82" height="18" rx="9" fill="#F59E0B" fill-opacity="0.12" stroke="#F59E0B" stroke-width="1"/>
  <text x="133" y="79" fill="#F59E0B" font-size="9" font-weight="800" text-anchor="middle">LABAR NATIVE</text>
  
  <text x="280" y="80" fill="#0F172A" font-size="12" font-weight="800" text-anchor="middle">ခရီးစဥ်မှာယူခြင်း (Ride Booking)</text>
  <circle cx="360" cy="74" r="14" fill="#F1F5F9"/>
  <text x="360" y="79" fill="#0F172A" font-size="11" text-anchor="middle">🔔</text>

  <!-- Body Content -->
  
    
    <!-- Rich Daylight Cartography Map Layer -->
    <g id="cartography-basemap">
      <!-- Background Land Surface (Light Slate 100) -->
      <rect x="16" y="110" width="358" height="236" rx="18" fill="#F1F5F9" stroke="#E2E8F0" stroke-width="1.5"/>
      <clipPath id="map-clip">
        <rect x="16" y="110" width="358" height="236" rx="18"/>
      </clipPath>
      
      <g clip-path="url(#map-clip)">
        <!-- Yangon River / Water Layer (Light Blue) -->
        <path d="M 16 310 Q 120 280 220 315 T 374 340 L 374 360 L 16 360 Z" fill="#BAE6FD" stroke="#7DD3FC" stroke-width="2"/>
        <!-- Kandawgyi / Inya Lake Park Reservoir (Soft Green) -->
        <path d="M 270 120 C 310 120, 360 140, 350 180 C 340 210, 290 200, 270 180 Z" fill="#BBF7D0" stroke="#86EFAC" stroke-width="1.5"/>
        <text x="310" y="165" fill="#166534" font-size="8" font-weight="700" text-anchor="middle">Kandawgyi Lake</text>

        <!-- City Block Footprints (Crisp White / Subtle Slate) -->
        <rect x="30" y="130" width="55" height="40" rx="4" fill="#FFFFFF" stroke="#E2E8F0" stroke-width="1"/>
        <rect x="95" y="130" width="60" height="40" rx="4" fill="#FFFFFF" stroke="#E2E8F0" stroke-width="1"/>
        <rect x="165" y="130" width="60" height="40" rx="4" fill="#FFFFFF" stroke="#E2E8F0" stroke-width="1"/>
        
        <rect x="30" y="185" width="55" height="45" rx="4" fill="#FFFFFF" stroke="#E2E8F0" stroke-width="1"/>
        <rect x="95" y="185" width="60" height="45" rx="4" fill="#FFFFFF" stroke="#E2E8F0" stroke-width="1"/>
        <rect x="165" y="185" width="60" height="45" rx="4" fill="#FFFFFF" stroke="#E2E8F0" stroke-width="1"/>

        <rect x="30" y="245" width="55" height="40" rx="4" fill="#FFFFFF" stroke="#E2E8F0" stroke-width="1"/>
        <rect x="95" y="245" width="60" height="40" rx="4" fill="#FFFFFF" stroke="#E2E8F0" stroke-width="1"/>
        <rect x="165" y="245" width="60" height="40" rx="4" fill="#FFFFFF" stroke="#E2E8F0" stroke-width="1"/>

        <!-- Secondary Street Network -->
        <line x1="20" y1="178" x2="370" y2="178" stroke="#E2E8F0" stroke-width="3"/>
        <line x1="20" y1="238" x2="370" y2="238" stroke="#E2E8F0" stroke-width="3"/>
        <line x1="90" y1="110" x2="90" y2="340" stroke="#E2E8F0" stroke-width="3"/>
        <line x1="160" y1="110" x2="160" y2="340" stroke="#E2E8F0" stroke-width="3"/>
        <line x1="230" y1="110" x2="230" y2="340" stroke="#E2E8F0" stroke-width="3"/>

        <!-- Major Arterial Highways (Pyay Rd / Bogyoke Rd / Strand Rd) -->
        <path d="M 20 236 Q 160 210 374 240" stroke="#CBD5E1" stroke-width="8" stroke-linecap="round" fill="none"/>
        <path d="M 20 236 Q 160 210 374 240" stroke="#FFFFFF" stroke-width="4" stroke-linecap="round" fill="none"/>
        
        <line x1="160" y1="110" x2="160" y2="340" stroke="#CBD5E1" stroke-width="8"/>
        <line x1="160" y1="110" x2="160" y2="340" stroke="#FFFFFF" stroke-width="4"/>

        <!-- Street Labels in Yangon -->
        <text x="210" y="228" fill="#475569" font-size="8" font-weight="700">Bogyoke Aung San Rd</text>
        <text x="166" y="145" fill="#475569" font-size="8" font-weight="700" transform="rotate(90 166 145)">Sule Pagoda Rd</text>
        <text x="32" y="230" fill="#475569" font-size="8" font-weight="700">Anawrahta Rd</text>

        <!-- Route Overlays and Pins -->
        
      <!-- Golden Polyline Route with Glow -->
      <path d="M 60 250 L 160 225 L 290 190" stroke="#D97706" stroke-width="6" stroke-linecap="round" fill="none" opacity="0.95"/>
      <path d="M 60 250 L 160 225 L 290 190" stroke="#FDE68A" stroke-width="2" stroke-linecap="round" fill="none"/>
    
        
      <!-- Pickup Pin (Green) -->
      <circle cx="60" cy="250" r="10" fill="#10B981" stroke="#FFFFFF" stroke-width="2"/>
      <circle cx="60" cy="250" r="4" fill="#FFFFFF"/>
      <rect x="35" y="265" width="65" height="18" rx="4" fill="#FFFFFF" stroke="#10B981"/>
      <text x="67" y="277" fill="#065F46" font-size="8" font-weight="800" text-anchor="middle">Sule Square</text>

      <!-- Stop Pin (Gold) -->
      <circle cx="160" cy="225" r="7" fill="#F59E0B" stroke="#FFFFFF" stroke-width="1.5"/>
      <text x="160" y="215" fill="#92400E" font-size="8" font-weight="800" text-anchor="middle">Bogyoke Market</text>

      <!-- Dest Pin (Red) -->
      <circle cx="290" cy="190" r="10" fill="#EF4444" stroke="#FFFFFF" stroke-width="2"/>
      <circle cx="290" cy="190" r="4" fill="#FFFFFF"/>
      <rect x="255" y="165" width="70" height="18" rx="4" fill="#FFFFFF" stroke="#EF4444"/>
      <text x="290" y="177" fill="#991B1B" font-size="8" font-weight="800" text-anchor="middle">Junction City</text>

      <!-- Cruising Taxi -->
      <rect x="110" y="228" width="30" height="16" rx="4" fill="#F59E0B" stroke="#FFFFFF" stroke-width="1"/>
      <text x="125" y="240" fill="#FFFFFF" font-size="9" font-weight="900" text-anchor="middle">🚖 3m</text>
    
      </g>
    </g>
    

    <!-- Multi-Stop Input Card -->
    <g filter="url(#card-shadow)">
      <rect x="16" y="356" width="358" height="174" rx="16" fill="#FFFFFF" stroke="#E2E8F0"/>
      <circle cx="38" cy="388" r="6" fill="#10B981"/>
      <text x="56" y="392" fill="#0F172A" font-size="13" font-weight="800">Sule Square, Downtown (စတင်ရာနေရာ)</text>

      <line x1="38" y1="398" x2="38" y2="422" stroke="#CBD5E1" stroke-width="2" stroke-dasharray="2 2"/>
      
      <circle cx="38" cy="430" r="5" fill="#F59E0B"/>
      <text x="56" y="434" fill="#92400E" font-size="12" font-weight="700">Stop 1: Bogyoke Aung San Market</text>
      <text x="352" y="434" fill="#DC2626" font-size="12" font-weight="800" text-anchor="end">✕</text>

      <line x1="38" y1="440" x2="38" y2="464" stroke="#CBD5E1" stroke-width="2" stroke-dasharray="2 2"/>

      <circle cx="38" cy="472" r="6" fill="#EF4444"/>
      <text x="56" y="476" fill="#0F172A" font-size="13" font-weight="800">Junction City Mall (သွားရောက်မည့်နေရာ)</text>

      <line x1="28" y1="494" x2="362" y2="494" stroke="#E2E8F0" stroke-width="1"/>
      <text x="56" y="514" fill="#D97706" font-size="12" font-weight="800">+ အပိုမှတ်တိုင် ထည့်သွင်းမည် (Add Extra Stop)</text>
    </g>

    <!-- Vehicle Selection Options -->
    <rect x="16" y="540" width="358" height="66" rx="14" fill="#FFFBEB" stroke="#F59E0B" stroke-width="2"/>
    <text x="36" y="568" fill="#0F172A" font-size="14" font-weight="800">🚗 Standard Taxi (4 Seats)</text>
    <text x="36" y="589" fill="#475569" font-size="11">Toyota Fielder / Probox • 3 mins away</text>
    <text x="354" y="576" fill="#D97706" font-size="16" font-weight="900" text-anchor="end">2,800 MMK</text>

    <rect x="16" y="614" width="358" height="62" rx="14" fill="#FFFFFF" stroke="#E2E8F0"/>
    <text x="36" y="642" fill="#0F172A" font-size="14" font-weight="700">👑 Royal Gold VIP Sedan</text>
    <text x="36" y="662" fill="#475569" font-size="11">Crown / Alphard • Leather &amp; AC • 2 mins</text>
    <text x="354" y="650" fill="#0F172A" font-size="15" font-weight="800" text-anchor="end">4,500 MMK</text>

    <!-- Payment & Booking Button -->
    <rect x="16" y="686" width="358" height="42" rx="10" fill="#FFFFFF" stroke="#E2E8F0"/>
    <text x="36" y="712" fill="#0F172A" font-size="12">💳 Payment: <tspan fill="#0284C7" font-weight="800">KBZPay Direct</tspan></text>
    <text x="354" y="712" fill="#D97706" font-size="11" font-weight="800" text-anchor="end">Change ❯</text>

    <g filter="url(#card-shadow)">
      <rect x="16" y="738" width="358" height="56" rx="14" fill="url(#gold-grad)"/>
      <text x="195" y="772" fill="#FFFFFF" font-size="16" font-weight="900" text-anchor="middle">ခရီးစဥ် ခေါ်ယူမည် (CONFIRM RIDE)</text>
    </g>
    

  <!-- Home Indicator -->
  <rect x="128" y="828" width="134" height="4" rx="2" fill="#CBD5E1"/>
</svg>