<svg xmlns="http://www.w3.org/2000/svg" viewBox="0 0 1350 780" width="100%" height="100%" style="background:#FFFFFF; font-family:'Inter', -apple-system, BlinkMacSystemFont, 'Segoe UI', Roboto, sans-serif;">
  <defs>
    <style>
      .title { font-size: 18px; font-weight: 800; fill: #181922; }
      .subtitle { font-size: 12px; fill: #6B7280; font-weight: 500; }
      .box { fill: #FFFFFF; stroke: #181922; stroke-width: 1.5; rx: 6px; }
      .box-pkg { fill: #FAFAFA; stroke: #2B2D3C; stroke-width: 1.5; stroke-dasharray: 4 4; rx: 8px; }
      .box-highlight { fill: #FFF8E1; stroke: #F59E0B; stroke-width: 2; rx: 6px; }
      .box-alert { fill: #FFE8E8; stroke: #E5252A; stroke-width: 2; rx: 6px; }
      .hdr-box { fill: #181922; }
      .hdr-text { fill: #FFFFFF; font-size: 12px; font-weight: 700; }
      .lbl { font-size: 11px; fill: #181922; font-weight: 600; }
      .txt { font-size: 10px; fill: #374151; }
      .txt-bold { font-size: 10px; fill: #181922; font-weight: 700; }
      .txt-pk { font-size: 10px; fill: #E5252A; font-weight: 700; }
      .txt-fk { font-size: 10px; fill: #D97706; font-weight: 600; }
      .line { stroke: #181922; stroke-width: 1.5; fill: none; }
      .line-dashed { stroke: #6B7280; stroke-width: 1.2; stroke-dasharray: 4 4; fill: none; }
      .line-gold { stroke: #F59E0B; stroke-width: 2; fill: none; }
      .line-red { stroke: #E5252A; stroke-width: 2; fill: none; }
      .actor-head { fill: #FFFFFF; stroke: #181922; stroke-width: 2; }
      .actor-body { stroke: #181922; stroke-width: 2; }
      .badge-gold { fill: #F59E0B; }
      .badge-red { fill: #E5252A; }
    </style>
    <marker id="arrow" viewBox="0 0 10 10" refX="6" refY="5" markerWidth="6" markerHeight="6" orient="auto-start-reverse">
      <path d="M 0 1 L 8 5 L 0 9 z" fill="#181922" />
    </marker>
    <marker id="arrow-gold" viewBox="0 0 10 10" refX="6" refY="5" markerWidth="6" markerHeight="6" orient="auto-start-reverse">
      <path d="M 0 1 L 8 5 L 0 9 z" fill="#F59E0B" />
    </marker>
    <marker id="arrow-red" viewBox="0 0 10 10" refX="6" refY="5" markerWidth="6" markerHeight="6" orient="auto-start-reverse">
      <path d="M 0 1 L 8 5 L 0 9 z" fill="#E5252A" />
    </marker>
  </defs>

  <!-- Banner Header -->
  <rect x="0" y="0" width="1350" height="55" fill="#181922" />
  <rect x="0" y="52" width="1350" height="3" fill="#F59E0B" />
  <text x="24" y="34" fill="#FFFFFF" font-size="18" font-weight="800">YAMATO TAXI ARCHITECTURE</text>
  <text x="1326" y="34" fill="#F59E0B" font-size="13" font-weight="700" text-anchor="end">02_SYSTEM_PROCESS_FLOWCHART</text>

  <!-- Diagram Body Canvas -->
  <g transform="translate(0, 60)">
    
    <rect x="30" y="20" width="240" height="680" class="box"/>
    <rect x="30" y="20" width="240" height="35" class="hdr-box"/>
    <text x="150" y="42" class="hdr-text" text-anchor="middle">1. PASSENGER APP</text>

    <rect x="290" y="20" width="240" height="680" class="box"/>
    <rect x="290" y="20" width="240" height="35" class="hdr-box"/>
    <text x="410" y="42" class="hdr-text" text-anchor="middle">2. GO DISPATCH ENGINE</text>

    <rect x="550" y="20" width="240" height="680" class="box"/>
    <rect x="550" y="20" width="240" height="35" class="hdr-box"/>
    <text x="670" y="42" class="hdr-text" text-anchor="middle">3. DRIVER APP</text>

    <rect x="810" y="20" width="240" height="680" class="box"/>
    <rect x="810" y="20" width="240" height="35" class="hdr-box"/>
    <text x="930" y="42" class="hdr-text" text-anchor="middle">4. SAFETY SHIELD</text>

    <rect x="1070" y="20" width="240" height="680" class="box"/>
    <rect x="1070" y="20" width="240" height="35" class="hdr-box"/>
    <text x="1190" y="42" class="hdr-text" text-anchor="middle">5. FINANCIAL SETTLEMENT</text>

    <rect x="50" y="80" width="200" height="40" class="box"/>
    <text x="150" y="105" class="lbl" text-anchor="middle">Select Pickup &amp; Dest (+Stops)</text>

    <rect x="50" y="150" width="200" height="40" class="box-highlight"/>
    <text x="150" y="175" class="lbl" text-anchor="middle">Review Fare &amp; Tap 'Call Now'</text>

    <rect x="310" y="150" width="200" height="40" class="box"/>
    <text x="410" y="175" class="lbl" text-anchor="middle">Redis GEORADIUS 3km Search</text>

    <rect x="310" y="220" width="200" height="40" class="box"/>
    <text x="410" y="245" class="lbl" text-anchor="middle">Dispatch 15s Cascading Offer</text>

    <rect x="570" y="220" width="200" height="40" class="box"/>
    <text x="670" y="245" class="lbl" text-anchor="middle">Driver Receives Offer &amp; Accepts</text>

    <rect x="570" y="290" width="200" height="40" class="box"/>
    <text x="670" y="315" class="lbl" text-anchor="middle">Drive to Pickup &amp; Start Trip</text>

    <rect x="830" y="290" width="200" height="45" class="box-highlight"/>
    <text x="930" y="312" class="lbl" text-anchor="middle">Activate Guardian Live Stream</text>
    <text x="930" y="325" class="txt" text-anchor="middle">(Push 'Ride Started' to Family)</text>

    <rect x="830" y="360" width="200" height="45" class="box-alert"/>
    <text x="930" y="382" class="lbl" text-anchor="middle">Off-Route Anomaly Monitor</text>
    <text x="930" y="395" class="txt" text-anchor="middle">(d_xt &gt; 300m Siren Trigger)</text>

    <rect x="830" y="430" width="200" height="40" class="box"/>
    <text x="930" y="455" class="lbl" text-anchor="middle">In-Car CCTV Rolling Chunks</text>

    <rect x="570" y="500" width="200" height="40" class="box"/>
    <text x="670" y="525" class="lbl" text-anchor="middle">Arrive Destination &amp; Lock Meter</text>

    <rect x="1090" y="500" width="200" height="45" class="box-highlight"/>
    <text x="1190" y="522" class="lbl" text-anchor="middle">E-Wallet Deep-Link (KBZPay)</text>
    <text x="1190" y="535" class="txt" text-anchor="middle">(Biometric / PIN Verification)</text>

    <rect x="1090" y="570" width="200" height="40" class="box"/>
    <text x="1190" y="595" class="lbl" text-anchor="middle">HMAC Webhook &amp; Driver Credit</text>

    <rect x="570" y="630" width="200" height="40" class="box-highlight"/>
    <text x="670" y="655" class="lbl" text-anchor="middle">Instant Sales Transfer / Payout</text>

    <line x1="150" y1="120" x2="150" y2="150" class="line" marker-end="url(#arrow)"/>
    <line x1="250" y1="170" x2="310" y2="170" class="line" marker-end="url(#arrow)"/>
    <line x1="410" y1="190" x2="410" y2="220" class="line" marker-end="url(#arrow)"/>
    <line x1="510" y1="240" x2="570" y2="240" class="line" marker-end="url(#arrow)"/>
    <line x1="670" y1="260" x2="670" y2="290" class="line" marker-end="url(#arrow)"/>
    <line x1="770" y1="310" x2="830" y2="310" class="line-gold" marker-end="url(#arrow-gold)"/>
    <line x1="930" y1="335" x2="930" y2="360" class="line" marker-end="url(#arrow)"/>
    <line x1="930" y1="405" x2="930" y2="430" class="line" marker-end="url(#arrow)"/>
    <line x1="670" y1="330" x2="670" y2="500" class="line" marker-end="url(#arrow)"/>
    <line x1="770" y1="520" x2="1090" y2="520" class="line-gold" marker-end="url(#arrow-gold)"/>
    <line x1="1190" y1="545" x2="1190" y2="570" class="line" marker-end="url(#arrow)"/>
    <line x1="1090" y1="590" x2="770" y2="650" class="line" marker-end="url(#arrow)"/>
    
  </g>
</svg>