<svg xmlns="http://www.w3.org/2000/svg" viewBox="0 0 390 844" width="390" height="844" style="background:#0A0B0E; font-family: -apple-system, BlinkMacSystemFont, 'Segoe UI', Roboto, 'Pyidaungsu', 'Myanmar3', sans-serif;">
  <defs>
    <linearGradient id="gold-grad" x1="0%" y1="0%" x2="100%" y2="100%">
      <stop offset="0%" stop-color="#FFE082"/>
      <stop offset="100%" stop-color="#F59E0B"/>
    </linearGradient>
    <linearGradient id="red-grad" x1="0%" y1="0%" x2="100%" y2="100%">
      <stop offset="0%" stop-color="#F85A5A"/>
      <stop offset="100%" stop-color="#E5252A"/>
    </linearGradient>
    <linearGradient id="emerald-grad" x1="0%" y1="0%" x2="100%" y2="100%">
      <stop offset="0%" stop-color="#34D399"/>
      <stop offset="100%" stop-color="#10B981"/>
    </linearGradient>
    <linearGradient id="cyan-grad" x1="0%" y1="0%" x2="100%" y2="100%">
      <stop offset="0%" stop-color="#38BDF8"/>
      <stop offset="100%" stop-color="#0284C7"/>
    </linearGradient>
    <filter id="card-shadow" x="-10%" y="-10%" width="120%" height="120%">
      <feDropShadow dx="0" dy="8" stdDeviation="10" flood-color="#000000" flood-opacity="0.6"/>
    </filter>
  </defs>

  <!-- Device Outer Border & Dynamic Island -->
  <rect x="1" y="1" width="388" height="842" rx="46" fill="#12131A" stroke="#2D3042" stroke-width="2"/>
  <rect x="130" y="12" width="130" height="28" rx="14" fill="#000000"/>
  <circle cx="236" cy="26" r="5" fill="#1C1D26"/>

  <!-- Status Bar -->
  <text x="36" y="32" fill="#FFFFFF" font-size="13" font-weight="700">9:41</text>
  <text x="354" y="32" fill="#FFFFFF" font-size="11" font-weight="700" text-anchor="end">5G 🔋 100%</text>

  <!-- App Header -->
  <rect x="0" y="48" width="390" height="52" fill="#181924" fill-opacity="0.95"/>
  <text x="24" y="80" fill="#F59E0B" font-size="18" font-weight="900" letter-spacing="0.5">LaBar</text>
  <rect x="92" y="66" width="82" height="18" rx="9" fill="#F59E0B" fill-opacity="0.15" stroke="#F59E0B" stroke-width="1"/>
  <text x="133" y="79" fill="#F59E0B" font-size="9" font-weight="800" text-anchor="middle">LABAR NATIVE</text>
  
  <text x="280" y="80" fill="#FFFFFF" font-size="12" font-weight="700" text-anchor="middle">မိသားစု အကာအကွယ် (Guardian Shield)</text>
  <circle cx="360" cy="74" r="14" fill="#232532"/>
  <text x="360" y="79" fill="#FFFFFF" font-size="11" text-anchor="middle">🔔</text>

  <!-- Body Content -->
  
    <!-- Guardian Live Shield Status Header -->
    <g filter="url(#card-shadow)">
      <rect x="16" y="110" width="358" height="114" rx="18" fill="#181924" stroke="#F59E0B" stroke-width="2"/>
      <text x="36" y="142" fill="#10B981" font-size="13" font-weight="800">🟢 RIDE IN PROGRESS (NORMAL)</text>
      <text x="36" y="168" fill="#FFFFFF" font-size="16" font-weight="800">Passenger: Ma Thiri (Daughter)</text>
      <text x="36" y="190" fill="#94A3B8" font-size="12">Driver: U Aung Kyaw (Toyota Fielder - 3A-8492)</text>
      <text x="36" y="208" fill="#F59E0B" font-size="11">In-Car CCTV: ACTIVE • 1080p Buffer Locked</text>
    </g>

    
    <!-- Rich Cartography Map Layer -->
    <g id="cartography-basemap">
      <!-- Background Land Surface -->
      <rect x="16" y="110" width="358" height="340" rx="18" fill="#141620" stroke="#2D3042" stroke-width="1.5"/>
      <clipPath id="map-clip">
        <rect x="16" y="110" width="358" height="340" rx="18"/>
      </clipPath>
      
      <g clip-path="url(#map-clip)">
        <!-- Yangon River / Water Layer -->
        <path d="M 16 310 Q 120 280 220 315 T 374 340 L 374 360 L 16 360 Z" fill="#162534" stroke="#1F364D" stroke-width="2"/>
        <!-- Kandawgyi / Inya Lake Park Reservoir -->
        <path d="M 270 120 C 310 120, 360 140, 350 180 C 340 210, 290 200, 270 180 Z" fill="#13261D" stroke="#1D3D30" stroke-width="1.5"/>
        <text x="310" y="165" fill="#2E654C" font-size="8" font-weight="700" text-anchor="middle">Kandawgyi Lake</text>

        <!-- City Block Footprints -->
        <rect x="30" y="130" width="55" height="40" rx="4" fill="#1B1D2B"/>
        <rect x="95" y="130" width="60" height="40" rx="4" fill="#1B1D2B"/>
        <rect x="165" y="130" width="60" height="40" rx="4" fill="#1B1D2B"/>
        
        <rect x="30" y="185" width="55" height="45" rx="4" fill="#1B1D2B"/>
        <rect x="95" y="185" width="60" height="45" rx="4" fill="#1B1D2B"/>
        <rect x="165" y="185" width="60" height="45" rx="4" fill="#1B1D2B"/>

        <rect x="30" y="245" width="55" height="40" rx="4" fill="#1B1D2B"/>
        <rect x="95" y="245" width="60" height="40" rx="4" fill="#1B1D2B"/>
        <rect x="165" y="245" width="60" height="40" rx="4" fill="#1B1D2B"/>

        <!-- Secondary Street Network -->
        <line x1="20" y1="178" x2="370" y2="178" stroke="#252838" stroke-width="3"/>
        <line x1="20" y1="238" x2="370" y2="238" stroke="#252838" stroke-width="3"/>
        <line x1="90" y1="110" x2="90" y2="340" stroke="#252838" stroke-width="3"/>
        <line x1="160" y1="110" x2="160" y2="340" stroke="#252838" stroke-width="3"/>
        <line x1="230" y1="110" x2="230" y2="340" stroke="#252838" stroke-width="3"/>

        <!-- Major Arterial Highways (Pyay Rd / Bogyoke Rd / Strand Rd) -->
        <path d="M 20 236 Q 160 210 374 240" stroke="#373B52" stroke-width="8" stroke-linecap="round" fill="none"/>
        <path d="M 20 236 Q 160 210 374 240" stroke="#4A4F6E" stroke-width="5" stroke-linecap="round" fill="none"/>
        
        <line x1="160" y1="110" x2="160" y2="340" stroke="#373B52" stroke-width="8"/>
        <line x1="160" y1="110" x2="160" y2="340" stroke="#4A4F6E" stroke-width="5"/>

        <!-- Street Labels in Yangon -->
        <text x="210" y="228" fill="#71789B" font-size="8" font-weight="700">Bogyoke Aung San Rd</text>
        <text x="166" y="145" fill="#71789B" font-size="8" font-weight="700" transform="rotate(90 166 145)">Sule Pagoda Rd</text>
        <text x="32" y="230" fill="#71789B" font-size="8" font-weight="700">Anawrahta Rd</text>

        <!-- Route Overlays and Pins -->
        
      <path d="M 60 480 Q 200 380 320 280" stroke="#10B981" stroke-width="5" fill="none"/>
      <circle cx="60" cy="480" r="7" fill="#10B981"/>
      <text x="75" y="484" fill="#FFFFFF" font-size="10">Pickup: Sule</text>
      <circle cx="320" cy="280" r="7" fill="#E5252A"/>
      <text x="320" y="265" fill="#FFFFFF" font-size="10" text-anchor="middle">Destination: Junction City</text>
      <circle cx="210" cy="350" r="14" fill="#F59E0B" stroke="#FFFFFF" stroke-width="2"/>
      <text x="210" y="355" fill="#12131A" font-size="10" font-weight="900" text-anchor="middle">🚖</text>
    
        
      </g>
    </g>
    

    <!-- Telemetry Float Card -->
    <rect x="36" y="490" width="318" height="64" rx="12" fill="#12131A" stroke="#2D3042"/>
    <text x="56" y="515" fill="#FFFFFF" font-size="11">Cross-Track Deviation: <tspan fill="#10B981" font-weight="700">12m (SAFE &lt; 300m)</tspan></text>
    <text x="56" y="536" fill="#FFFFFF" font-size="11">Speed: <tspan font-weight="700">38 km/h</tspan> | Heading: North-West</text>

    <!-- Emergency SOS Siren Button -->
    <g filter="url(#card-shadow)">
      <rect x="16" y="590" width="358" height="60" rx="16" fill="url(#red-grad)"/>
      <text x="195" y="626" fill="#FFFFFF" font-size="16" font-weight="900" text-anchor="middle">🚨 အရေးပေါ် ဥသြသံဖွင့်မည် (EMERGENCY SOS)</text>
    </g>

    <!-- Direct Call Driver & Police -->
    <rect x="16" y="662" width="172" height="50" rx="12" fill="#232532" stroke="#2D3042"/>
    <text x="102" y="693" fill="#FFFFFF" font-size="12" font-weight="700" text-anchor="middle">📞 ယာဥ်မောင်းခေါ်မည်</text>

    <rect x="202" y="662" width="172" height="50" rx="12" fill="#232532" stroke="#2D3042"/>
    <text x="288" y="693" fill="#FFFFFF" font-size="12" font-weight="700" text-anchor="middle">👮 ရဲစခန်း ၁၉၉</text>

    <text x="195" y="745" fill="#94A3B8" font-size="11" text-anchor="middle">Guardian Shield Dynamic Plugin v1.4 • Encrypted Stream</text>
    

  <!-- Home Indicator -->
  <rect x="128" y="828" width="134" height="4" rx="2" fill="#64748B"/>
</svg>