<svg xmlns="http://www.w3.org/2000/svg" viewBox="0 0 390 844" width="390" height="844" style="background:#0E0F14; font-family: -apple-system, BlinkMacSystemFont, 'Segoe UI', Roboto, 'Pyidaungsu', sans-serif;">
  <defs>
    <linearGradient id="gold-grad" x1="0%" y1="0%" x2="100%" y2="100%">
      <stop offset="0%" stop-color="#FFD54F"/>
      <stop offset="100%" stop-color="#F59E0B"/>
    </linearGradient>
    <linearGradient id="red-grad" x1="0%" y1="0%" x2="100%" y2="100%">
      <stop offset="0%" stop-color="#F85A5A"/>
      <stop offset="100%" stop-color="#E5252A"/>
    </linearGradient>
    <filter id="card-shadow" x="-10%" y="-10%" width="120%" height="120%">
      <feDropShadow dx="0" dy="6" stdDeviation="8" flood-color="#000000" flood-opacity="0.5"/>
    </filter>
  </defs>

  <!-- Device Outer Border & Island -->
  <rect x="1" y="1" width="388" height="842" rx="44" fill="#0E0F14" stroke="#282836" stroke-width="2"/>
  <rect x="130" y="12" width="130" height="30" rx="15" fill="#000000"/>
  <circle cx="236" cy="27" r="5" fill="#181922"/>

  <!-- Status Bar -->
  <text x="36" y="32" fill="#FFFFFF" font-size="14" font-weight="600">9:41</text>
  <text x="354" y="32" fill="#FFFFFF" font-size="12" font-weight="600" text-anchor="end">5G 🔋 100%</text>

  <!-- App Header -->
  <rect x="0" y="52" width="390" height="50" fill="#181922" fill-opacity="0.8"/>
  <text x="24" y="83" fill="#F59E0B" font-size="18" font-weight="800">LarBar</text>
  <text x="195" y="83" fill="#FFFFFF" font-size="15" font-weight="700" text-anchor="middle">ရှာဖွေနေသည် (Dispatch Cascading)</text>
  <circle cx="360" cy="77" r="14" fill="#282836"/>
  <text x="360" y="82" fill="#FFFFFF" font-size="12" text-anchor="middle">🔔</text>

  <!-- Body Content -->
  
    <!-- Cascading Dispatch Radar Animation Area -->
    <rect x="16" y="120" width="358" height="400" rx="20" fill="#181922" stroke="#282836"/>
    
    <!-- Radar Concentric Circles -->
    <circle cx="195" cy="290" r="140" fill="none" stroke="#282836" stroke-width="2"/>
    <circle cx="195" cy="290" r="100" fill="none" stroke="#F59E0B" stroke-width="1.5" stroke-opacity="0.3"/>
    <circle cx="195" cy="290" r="60" fill="none" stroke="#F59E0B" stroke-width="2" stroke-opacity="0.6"/>
    <circle cx="195" cy="290" r="20" fill="#F59E0B" fill-opacity="0.2"/>
    <circle cx="195" cy="290" r="8" fill="#F59E0B"/>

    <!-- Nearby Candidate Drivers Pings -->
    <circle cx="150" cy="230" r="6" fill="#10B981"/>
    <text x="150" y="220" fill="#10B981" font-size="9" text-anchor="middle">Driver 1 (250m)</text>

    <circle cx="260" cy="260" r="5" fill="#9CA3AF"/>
    <circle cx="170" cy="370" r="5" fill="#9CA3AF"/>

    <!-- 15s Countdown Ring HUD -->
    <rect x="75" y="440" width="240" height="60" rx="12" fill="#0E0F14" stroke="#F59E0B" stroke-width="1.5"/>
    <text x="195" y="465" fill="#F59E0B" font-size="13" font-weight="700" text-anchor="middle">15s Cascading Offer Active</text>
    <text x="195" y="485" fill="#FFFFFF" font-size="11" text-anchor="middle">Offering to nearest driver: U Aung Kyaw (9s left)</text>

    <!-- Status Card -->
    <rect x="16" y="540" width="358" height="150" rx="16" fill="#181922" stroke="#282836"/>
    <text x="36" y="572" fill="#FFFFFF" font-size="15" font-weight="700">ယာဥ်မောင်း ရှာဖွေနေပါသည်...</text>
    <text x="36" y="594" fill="#9CA3AF" font-size="12">Searching within 3.0 km via Redis Spatial Engine</text>

    <line x1="36" y1="610" x2="354" y2="610" stroke="#282836" stroke-width="1"/>
    <text x="36" y="635" fill="#FFFFFF" font-size="12">Pickup: <tspan font-weight="600">Sule Square</tspan></text>
    <text x="36" y="658" fill="#FFFFFF" font-size="12">Est. Fare: <tspan fill="#F59E0B" font-weight="700">2,800 MMK</tspan> (KBZPay)</text>

    <!-- Cancel Button -->
    <rect x="16" y="720" width="358" height="52" rx="14" fill="#242533" stroke="#F85A5A" stroke-width="1.5"/>
    <text x="195" y="752" fill="#F85A5A" font-size="14" font-weight="700" text-anchor="middle">မခေါ်ယူတော့ပါ (CANCEL SEARCH)</text>
    

  <!-- Home Indicator -->
  <rect x="125" y="828" width="140" height="5" rx="2.5" fill="#484856"/>
</svg>